<mxfile host="Electron" modified="2023-08-23T20:16:21.688Z" agent="Mozilla/5.0 (Macintosh; Intel Mac OS X 10_15_7) AppleWebKit/537.36 (KHTML, like Gecko) draw.io/21.6.5 Chrome/114.0.5735.243 Electron/25.3.1 Safari/537.36" etag="lfcA2g877rwthdeTSU-g" version="21.6.5" type="device">
  <diagram name="Page-1" id="HT2fAabc5w-bLmyOKSKE">
    <mxGraphModel dx="1026" dy="1827" grid="1" gridSize="10" guides="1" tooltips="1" connect="1" arrows="1" fold="1" page="1" pageScale="1" pageWidth="827" pageHeight="1169" math="0" shadow="0">
      <root>
        <mxCell id="0" />
        <mxCell id="1" parent="0" />
        <mxCell id="-IojjFcPE6ZiAus1qCQi-106" value="" style="rounded=0;whiteSpace=wrap;html=1;strokeColor=none;fontSize=14;fontFamily=Garamond;" parent="1" vertex="1">
          <mxGeometry x="60" y="-20" width="720" height="370" as="geometry" />
        </mxCell>
        <mxCell id="-IojjFcPE6ZiAus1qCQi-10" style="edgeStyle=orthogonalEdgeStyle;rounded=0;orthogonalLoop=1;jettySize=auto;html=1;entryX=0.5;entryY=0;entryDx=0;entryDy=0;fontSize=14;fontFamily=Garamond;" parent="1" source="-IojjFcPE6ZiAus1qCQi-1" target="-IojjFcPE6ZiAus1qCQi-2" edge="1">
          <mxGeometry relative="1" as="geometry" />
        </mxCell>
        <mxCell id="-IojjFcPE6ZiAus1qCQi-1" value="Trader" style="rounded=1;whiteSpace=wrap;html=1;fontSize=14;fontFamily=Garamond;" parent="1" vertex="1">
          <mxGeometry x="79" y="70" width="60" height="50" as="geometry" />
        </mxCell>
        <mxCell id="-IojjFcPE6ZiAus1qCQi-15" style="edgeStyle=orthogonalEdgeStyle;rounded=0;orthogonalLoop=1;jettySize=auto;html=1;fontSize=14;fontFamily=Garamond;" parent="1" source="-IojjFcPE6ZiAus1qCQi-2" target="-IojjFcPE6ZiAus1qCQi-6" edge="1">
          <mxGeometry relative="1" as="geometry" />
        </mxCell>
        <mxCell id="-IojjFcPE6ZiAus1qCQi-2" value="cPool&lt;br style=&quot;font-size: 14px;&quot;&gt;&lt;font color=&quot;#3333ff&quot; style=&quot;font-size: 14px;&quot;&gt;base&lt;/font&gt;/&lt;font color=&quot;#ff0000&quot; style=&quot;font-size: 14px;&quot;&gt;quote&lt;/font&gt;&lt;br style=&quot;font-size: 14px;&quot;&gt;pool" style="ellipse;whiteSpace=wrap;html=1;aspect=fixed;fontSize=14;fontFamily=Garamond;" parent="1" vertex="1">
          <mxGeometry x="69" y="250" width="80" height="80" as="geometry" />
        </mxCell>
        <mxCell id="-IojjFcPE6ZiAus1qCQi-67" style="edgeStyle=orthogonalEdgeStyle;rounded=0;orthogonalLoop=1;jettySize=auto;html=1;exitX=1;exitY=0.5;exitDx=0;exitDy=0;fontSize=14;fontFamily=Garamond;" parent="1" source="-IojjFcPE6ZiAus1qCQi-6" target="-IojjFcPE6ZiAus1qCQi-65" edge="1">
          <mxGeometry relative="1" as="geometry" />
        </mxCell>
        <mxCell id="-IojjFcPE6ZiAus1qCQi-6" value="Flashloan&lt;br style=&quot;font-size: 14px;&quot;&gt;process" style="whiteSpace=wrap;html=1;aspect=fixed;fontSize=14;fontFamily=Garamond;" parent="1" vertex="1">
          <mxGeometry x="380" y="240" width="100" height="100" as="geometry" />
        </mxCell>
        <mxCell id="-IojjFcPE6ZiAus1qCQi-11" value="1. &lt;font color=&quot;#ff0000&quot; style=&quot;font-size: 14px;&quot;&gt;Deposit margin M&lt;/font&gt;&lt;br style=&quot;font-size: 14px;&quot;&gt;&lt;font color=&quot;#0000ff&quot; style=&quot;font-size: 14px;&quot;&gt;Request a position of L&lt;/font&gt;" style="text;html=1;strokeColor=none;fillColor=none;align=center;verticalAlign=middle;whiteSpace=wrap;rounded=0;fontSize=14;fontFamily=Garamond;" parent="1" vertex="1">
          <mxGeometry x="110" y="140" width="140" height="30" as="geometry" />
        </mxCell>
        <mxCell id="-IojjFcPE6ZiAus1qCQi-16" value="2. &lt;font color=&quot;#ff0000&quot; style=&quot;font-size: 14px;&quot;&gt;Need to borrow amount of (L - M)&amp;nbsp;&lt;/font&gt;" style="text;html=1;strokeColor=none;fillColor=none;align=center;verticalAlign=middle;whiteSpace=wrap;rounded=0;fontSize=14;fontFamily=Garamond;" parent="1" vertex="1">
          <mxGeometry x="146.5" y="260" width="222.25" height="30" as="geometry" />
        </mxCell>
        <mxCell id="-IojjFcPE6ZiAus1qCQi-73" style="edgeStyle=orthogonalEdgeStyle;rounded=0;orthogonalLoop=1;jettySize=auto;html=1;exitX=1;exitY=0.5;exitDx=0;exitDy=0;entryX=1;entryY=0.25;entryDx=0;entryDy=0;fontSize=14;fontFamily=Garamond;" parent="1" source="-IojjFcPE6ZiAus1qCQi-22" target="-IojjFcPE6ZiAus1qCQi-6" edge="1">
          <mxGeometry relative="1" as="geometry">
            <Array as="points">
              <mxPoint x="560" y="85" />
              <mxPoint x="560" y="265" />
            </Array>
          </mxGeometry>
        </mxCell>
        <mxCell id="-IojjFcPE6ZiAus1qCQi-22" value="Aave&lt;br style=&quot;font-size: 14px;&quot;&gt;&amp;nbsp;&lt;font color=&quot;#0000ff&quot; style=&quot;font-size: 14px;&quot;&gt;base&lt;/font&gt;/&lt;font color=&quot;#ff0000&quot; style=&quot;font-size: 14px;&quot;&gt;quote &lt;/font&gt;&lt;br style=&quot;font-size: 14px;&quot;&gt;pool" style="ellipse;whiteSpace=wrap;html=1;aspect=fixed;fontSize=14;fontFamily=Garamond;" parent="1" vertex="1">
          <mxGeometry x="380" y="30" width="110" height="110" as="geometry" />
        </mxCell>
        <mxCell id="-IojjFcPE6ZiAus1qCQi-25" value="6. &lt;font color=&quot;#0000ff&quot; style=&quot;font-size: 14px;&quot;&gt;Lending: leveraged quantity L&lt;/font&gt;" style="text;html=1;strokeColor=none;fillColor=none;align=center;verticalAlign=middle;whiteSpace=wrap;rounded=0;fontSize=14;fontFamily=Garamond;" parent="1" vertex="1">
          <mxGeometry x="449" y="-20" width="190" height="30" as="geometry" />
        </mxCell>
        <mxCell id="-IojjFcPE6ZiAus1qCQi-32" value="" style="endArrow=classic;html=1;rounded=0;exitX=0.25;exitY=0.936;exitDx=0;exitDy=0;exitPerimeter=0;entryX=0.27;entryY=0.002;entryDx=0;entryDy=0;entryPerimeter=0;fontSize=14;fontFamily=Garamond;" parent="1" source="-IojjFcPE6ZiAus1qCQi-22" target="-IojjFcPE6ZiAus1qCQi-6" edge="1">
          <mxGeometry width="50" height="50" relative="1" as="geometry">
            <mxPoint x="400" y="160" as="sourcePoint" />
            <mxPoint x="400" y="240" as="targetPoint" />
          </mxGeometry>
        </mxCell>
        <mxCell id="-IojjFcPE6ZiAus1qCQi-41" value="4. &lt;font color=&quot;#ff0000&quot; style=&quot;font-size: 14px;&quot;&gt;Got flashloan&lt;/font&gt;" style="text;html=1;strokeColor=none;fillColor=none;align=center;verticalAlign=middle;whiteSpace=wrap;rounded=0;rotation=90;fontSize=14;fontFamily=Garamond;" parent="1" vertex="1">
          <mxGeometry x="368.75" y="160" width="100.5" height="50" as="geometry" />
        </mxCell>
        <mxCell id="-IojjFcPE6ZiAus1qCQi-79" style="edgeStyle=orthogonalEdgeStyle;rounded=0;orthogonalLoop=1;jettySize=auto;html=1;entryX=0;entryY=0.5;entryDx=0;entryDy=0;exitX=0.5;exitY=0;exitDx=0;exitDy=0;fontSize=14;fontFamily=Garamond;" parent="1" source="-IojjFcPE6ZiAus1qCQi-65" target="-IojjFcPE6ZiAus1qCQi-22" edge="1">
          <mxGeometry relative="1" as="geometry">
            <mxPoint x="689" y="-35" as="sourcePoint" />
            <mxPoint x="390" y="-35" as="targetPoint" />
          </mxGeometry>
        </mxCell>
        <mxCell id="-IojjFcPE6ZiAus1qCQi-65" value="Uniswap&lt;br style=&quot;font-size: 14px;&quot;&gt;&lt;font color=&quot;#0000ff&quot; style=&quot;font-size: 14px;&quot;&gt;base&lt;/font&gt;/&lt;font color=&quot;#ff0000&quot; style=&quot;font-size: 14px;&quot;&gt;quote&lt;/font&gt;&lt;br style=&quot;font-size: 14px;&quot;&gt;pool" style="ellipse;whiteSpace=wrap;html=1;aspect=fixed;fontSize=14;fontFamily=Garamond;" parent="1" vertex="1">
          <mxGeometry x="660" y="30" width="110" height="110" as="geometry" />
        </mxCell>
        <mxCell id="-IojjFcPE6ZiAus1qCQi-68" value="5. &lt;font color=&quot;#ff0000&quot; style=&quot;font-size: 14px;&quot;&gt;M + Flashloan = L&lt;/font&gt;&amp;nbsp;&lt;br style=&quot;font-size: 14px;&quot;&gt;swap to &lt;font color=&quot;#0000ff&quot; style=&quot;font-size: 14px;&quot;&gt;base currency&lt;/font&gt;&amp;nbsp;" style="text;html=1;strokeColor=none;fillColor=none;align=center;verticalAlign=middle;whiteSpace=wrap;rounded=0;fontSize=14;fontFamily=Garamond;" parent="1" vertex="1">
          <mxGeometry x="540" y="260" width="180" height="30" as="geometry" />
        </mxCell>
        <mxCell id="-IojjFcPE6ZiAus1qCQi-71" value="" style="endArrow=classic;html=1;rounded=0;exitX=0.16;exitY=-0.011;exitDx=0;exitDy=0;exitPerimeter=0;entryX=0;entryY=1;entryDx=0;entryDy=0;fontSize=14;fontFamily=Garamond;" parent="1" source="-IojjFcPE6ZiAus1qCQi-6" target="-IojjFcPE6ZiAus1qCQi-22" edge="1">
          <mxGeometry width="50" height="50" relative="1" as="geometry">
            <mxPoint x="390" y="230" as="sourcePoint" />
            <mxPoint x="390" y="130" as="targetPoint" />
          </mxGeometry>
        </mxCell>
        <mxCell id="-IojjFcPE6ZiAus1qCQi-72" value="3.Request flashloan" style="text;html=1;strokeColor=none;fillColor=none;align=center;verticalAlign=middle;whiteSpace=wrap;rounded=0;rotation=-91;fontSize=14;fontFamily=Garamond;" parent="1" vertex="1">
          <mxGeometry x="319" y="150" width="130" height="50" as="geometry" />
        </mxCell>
        <mxCell id="-IojjFcPE6ZiAus1qCQi-76" value="7.&lt;font color=&quot;#0000ff&quot; style=&quot;font-size: 14px;&quot;&gt;&amp;nbsp;&lt;/font&gt;&lt;font color=&quot;#ff0000&quot; style=&quot;font-size: 14px;&quot;&gt;Borrow LTV x L to payback&amp;nbsp;&lt;/font&gt;" style="text;html=1;strokeColor=none;fillColor=none;align=center;verticalAlign=middle;whiteSpace=wrap;rounded=0;fontSize=14;fontFamily=Garamond;" parent="1" vertex="1">
          <mxGeometry x="490" y="40" width="70" height="30" as="geometry" />
        </mxCell>
        <mxCell id="-IojjFcPE6ZiAus1qCQi-81" value="" style="endArrow=classic;html=1;rounded=0;entryX=0.819;entryY=0.891;entryDx=0;entryDy=0;entryPerimeter=0;fontSize=14;fontFamily=Garamond;" parent="1" target="-IojjFcPE6ZiAus1qCQi-22" edge="1">
          <mxGeometry width="50" height="50" relative="1" as="geometry">
            <mxPoint x="470" y="240" as="sourcePoint" />
            <mxPoint x="470" y="130" as="targetPoint" />
          </mxGeometry>
        </mxCell>
        <mxCell id="-IojjFcPE6ZiAus1qCQi-83" value="8. &lt;font color=&quot;#ff0000&quot;&gt;Payback flashloan&lt;/font&gt;" style="text;html=1;strokeColor=none;fillColor=none;align=center;verticalAlign=middle;whiteSpace=wrap;rounded=0;rotation=90;fontSize=14;fontFamily=Garamond;" parent="1" vertex="1">
          <mxGeometry x="414" y="170" width="141" height="30" as="geometry" />
        </mxCell>
      </root>
    </mxGraphModel>
  </diagram>
</mxfile>
